<?xml version="1.0" encoding="UTF-8"?>
<!DOCTYPE svg PUBLIC "-//W3C//DTD SVG 1.1//EN" "http://www.w3.org/Graphics/SVG/1.1/DTD/svg11.dtd">
<!-- Creator: CorelDRAW X7 -->
<svg xmlns="http://www.w3.org/2000/svg" xml:space="preserve" width="1.45936in" height="1.45936in" version="1.1" style="shape-rendering:geometricPrecision; text-rendering:geometricPrecision; image-rendering:optimizeQuality; fill-rule:evenodd; clip-rule:evenodd"
viewBox="0 0 442 442"
 xmlns:xlink="http://www.w3.org/1999/xlink">
 <defs>
  <style type="text/css">
   <![CDATA[
    .fil0 {fill:white;fill-rule:nonzero}
   ]]>
  </style>
 </defs>
 <g id="Layer_x0020_1">
  <metadata id="CorelCorpID_0Corel-Layer"/>
  <path class="fil0" d="M147 221c0,-41 33,-74 74,-74 40,0 73,33 73,74 0,40 -32,73 -73,73 -41,0 -74,-32 -74,-73zm-40 0c1,63 51,113 114,113 63,0 113,-51 113,-113 0,-63 -51,-114 -113,-114 -63,1 -114,51 -114,114l0 0zm205 -118c0,14 12,26 26,26 15,0 27,-12 27,-26 0,-15 -12,-27 -27,-27 -14,0 -26,12 -26,27l0 0zm-180 298c-22,-1 -33,-5 -41,-8 -10,-4 -18,-9 -26,-16 -7,-8 -12,-15 -16,-26 -3,-8 -7,-19 -8,-41 -1,-23 -1,-30 -1,-89 0,-59 0,-66 1,-89 1,-22 4,-33 7,-41 4,-10 9,-18 17,-26 8,-7 15,-12 25,-16 8,-3 20,-7 41,-8 23,-1 30,-1 89,-1 59,0 66,0 90,1 21,1 33,4 41,7 10,4 17,9 25,17 8,8 13,15 17,25 3,8 6,20 7,41 1,23 2,30 2,89 0,59 0,66 -1,90 -1,21 -5,33 -8,41 -4,10 -9,17 -16,25 -8,8 -15,13 -26,17 -8,3 -19,6 -41,7 -23,1 -30,2 -89,2 -59,0 -66,0 -89,-1l0 0zm-3 -399c-23,1 -39,4 -53,10 -15,6 -27,13 -39,25 -13,13 -20,25 -26,40 -5,14 -9,30 -10,53 -1,24 -1,31 -1,91 0,60 0,68 2,91 1,24 4,40 10,54 6,14 13,27 25,39 13,12 25,20 40,25 14,6 30,9 53,10 24,1 31,2 91,1 60,0 68,0 91,-1 24,-1 40,-5 54,-10 14,-6 27,-14 39,-26 12,-12 20,-25 25,-39 6,-14 9,-30 10,-54 1,-23 2,-31 1,-91 0,-60 0,-67 -1,-91 -1,-23 -5,-39 -10,-53 -6,-15 -14,-27 -26,-39 -12,-13 -25,-20 -39,-26 -14,-5 -30,-9 -54,-10 -23,-1 -31,-1 -91,-1 -60,0 -67,0 -91,2l0 0z"/>
 </g>
</svg>
