<?xml version="1.0" encoding="UTF-8"?>
<!DOCTYPE svg PUBLIC "-//W3C//DTD SVG 1.1//EN" "http://www.w3.org/Graphics/SVG/1.1/DTD/svg11.dtd">
<!-- Creator: CorelDRAW X7 -->
<svg xmlns="http://www.w3.org/2000/svg" xml:space="preserve" width="0.674756in" height="0.898843in" version="1.1" style="shape-rendering:geometricPrecision; text-rendering:geometricPrecision; image-rendering:optimizeQuality; fill-rule:evenodd; clip-rule:evenodd"
viewBox="0 0 37 49"
 xmlns:xlink="http://www.w3.org/1999/xlink">
 <defs>
  <style type="text/css">
   <![CDATA[
    .fil0 {fill:#FEFEFE}
   ]]>
  </style>
 </defs>
 <g id="Layer_x0020_1">
  <metadata id="CorelCorpID_0Corel-Layer"/>
  <g id="_3147033297008">
   <g>
    <path class="fil0" d="M27 42c-2,3 -5,5 -7,7 -1,0 -1,0 -2,0 -4,-3 -8,-6 -10,-10 -4,-5 -7,-10 -8,-15 -1,-6 0,-11 3,-15 1,-2 2,-3 4,-4 4,-3 8,-5 12,-5 4,0 8,2 12,5 1,1 2,2 3,4 3,4 3,10 2,16 -1,6 -4,12 -9,17l0 0 0 0zm-9 -33c5,0 9,5 9,10 0,5 -4,9 -9,9 -5,0 -9,-4 -9,-9 0,-5 4,-10 9,-10l0 0z"/>
   </g>
  </g>
 </g>
</svg>
