<?xml version="1.0" encoding="UTF-8"?>
<!DOCTYPE svg PUBLIC "-//W3C//DTD SVG 1.1//EN" "http://www.w3.org/Graphics/SVG/1.1/DTD/svg11.dtd">
<!-- Creator: CorelDRAW X7 -->
<svg xmlns="http://www.w3.org/2000/svg" xml:space="preserve" width="13.8034in" height="11.4334in" version="1.1" style="shape-rendering:geometricPrecision; text-rendering:geometricPrecision; image-rendering:optimizeQuality; fill-rule:evenodd; clip-rule:evenodd"
viewBox="0 0 11837 9805"
 xmlns:xlink="http://www.w3.org/1999/xlink">
 <defs>
  <style type="text/css">
   <![CDATA[
    .fil0 {fill:#FEFEFE}
   ]]>
  </style>
 </defs>
 <g id="Layer_x0020_1">
  <metadata id="CorelCorpID_0Corel-Layer"/>
  <g id="_1698626535824">
   <path class="fil0" d="M4692 5150l-624 0c-18,0 -23,-5 -23,-23l0 -754 647 0c2,24 8,27 8,53l0 594c0,56 -8,77 -8,130zm1326 -4541l0 6217 -579 0 0 -3192 -2133 0 0 2255 1386 0c2,24 8,27 8,53l0 815c0,39 -7,34 -8,69l-1363 0c-18,0 -23,5 -23,23l0 716 7335 0 0 -3931 -739 0 0 3192 -510 0 0 -2027c-79,-18 -601,-7 -724,-7 -17,0 -23,5 -23,23l0 2011 -571 0 0 -2453 1387 0c18,-79 7,-594 7,-716 0,-35 -54,-23 -91,-23l-2042 0 0 3192 -571 0 0 -6780c-56,30 -583,421 -662,481 -20,15 -84,56 -84,82z"/>
   <path class="fil0" d="M1089 5942l0 884 -304 0c33,-142 202,-596 261,-774 10,-30 26,-85 43,-110zm1501 -2308l-198 0 0 3192 -556 0 0 -3169c0,-18 -6,-23 -23,-23l-709 0c-26,0 -31,37 -46,83l-99 304c-177,533 -377,1081 -552,1612l-341 1007c-16,46 -66,164 -66,209l0 716 3123 0 0 -3931 -251 0c-141,-8 -42,-8 -183,0 -31,2 -68,0 -99,0z"/>
   <path class="fil0" d="M11091 7542c0,18 5,23 22,23l724 0 0 -3931 -746 0 0 3908z"/>
   <path class="fil0" d="M7351 312l0 3032c319,0 283,23 282,-76 -7,-512 -1,-1070 -1,-1584 0,-562 0,-1123 0,-1684 -34,9 -195,181 -224,218 -21,28 -57,50 -57,94z"/>
   <path class="fil0" d="M5164 1402l0 1935c49,0 64,7 115,7l160 0 0 -2125c-45,10 -109,60 -145,84l-100 67c-17,11 -30,9 -30,32z"/>
   <path class="fil0" d="M8783 9675l53 0c17,-31 126,-353 129,-388 35,25 100,255 118,309 13,40 15,79 65,79 28,0 52,-105 68,-153l161 -517 -122 0c-22,46 -41,128 -58,185 -13,42 -56,161 -56,196 -22,-16 -31,-58 -41,-89l-67 -200c-24,-77 -10,-92 -68,-92 -35,0 -74,159 -82,184l-62 182c0,2 -2,4 -2,5l-96 -288c-33,-97 -8,-83 -146,-83 0,109 176,542 206,670z"/>
   <path class="fil0" d="M4951 9668c111,0 93,28 129,-153l31 -175c29,21 122,302 130,335l45 0c32,-47 43,-111 67,-170 16,-42 42,-140 70,-173 0,57 17,118 28,171 11,59 21,110 33,165l115 0c0,-133 -119,-536 -130,-663l-61 0c-29,43 -85,244 -103,308 -12,42 -25,73 -34,111l-22 -47c-7,-21 -11,-34 -19,-57 -13,-38 -22,-76 -34,-111l-53 -160c-15,-47 -6,-44 -62,-44 -29,0 -29,36 -34,65 -6,32 -13,63 -18,89l-89 437c-6,31 -25,72 11,72z"/>
   <path class="fil0" d="M724 9668l114 0c12,-51 24,-103 34,-157l27 -163c30,8 16,1 26,26l96 270c12,30 9,31 45,31 26,0 33,-46 43,-72 18,-47 74,-242 102,-263l59 299c11,38 -2,29 124,29l-65 -331c-13,-61 -65,-291 -65,-332 -90,0 -72,-12 -100,90 -10,34 -24,74 -36,109l-53 160c-9,30 -3,37 -24,52 -2,-30 -59,-190 -73,-231 -14,-42 -23,-75 -36,-116 -22,-67 -9,-64 -89,-64l-129 663z"/>
   <path class="fil0" d="M2346 9393c0,-93 -12,-162 41,-233 76,-102 271,-75 271,134l0 115c0,199 -312,229 -312,-16zm526 412l-60 0c-77,-1 -148,-10 -213,-71 -26,-25 -30,-41 -69,-52 -50,-14 -159,25 -256,-118 -60,-88 -57,-161 -57,-262 0,-84 41,-178 81,-223 149,-167 498,-108 498,253 0,237 -123,287 -145,320 77,52 105,38 221,38 0,36 7,26 7,54 0,25 -7,24 -7,61z"/>
   <path class="fil0" d="M7244 9662l112 0 0 -102c0,-3 0,-12 1,-15 3,-14 5,-14 9,-20l0 -238c33,22 54,67 82,100l201 264c26,29 25,24 75,24l0 -670c-158,0 -122,-69 -122,373 -26,-17 -131,-161 -163,-202l-121 -154c-22,-25 -31,-17 -74,-17 -1,37 -11,32 -5,72l-3 499c0,43 7,51 8,86z"/>
   <path class="fil0" d="M1638 7862c-17,72 -8,265 -8,350 0,43 8,46 8,84 73,17 299,8 388,8 26,0 30,-6 53,-8 1,-34 8,-30 8,-68l0 -351c0,-17 -5,-23 -23,-23 -66,0 -386,-8 -426,8z"/>
   <polygon class="fil0" points="990,3291 1432,3291 1432,2849 990,2849 "/>
   <polygon class="fil0" points="1501,3291 1942,3291 1942,2849 1501,2849 "/>
   <path class="fil0" d="M2157 8075l0 223c51,0 168,-12 204,6l229 0c0,-46 0,-92 0,-137l8 -268c0,-52 8,-45 -100,-45 -383,2 -344,-27 -342,76 0,49 -3,98 1,145z"/>
   <path class="fil0" d="M11258 9660l114 0c0,-31 -7,-82 8,-104l0 -186 207 0c42,0 38,-6 46,30 17,83 -2,179 -2,268l115 0c33,-70 15,-217 15,-313 0,-112 0,-223 0,-335 -44,-29 -76,-33 -130,-8l0 244c-68,16 -170,8 -251,8l0 -259 -122 0 0 655z"/>
   <path class="fil0" d="M5797 9005c-18,74 -8,353 -8,449 0,322 495,269 495,38l0 -487 -122 0c0,19 1,42 0,61 -4,77 -14,7 -1,123 6,51 3,270 -14,318 -22,62 -87,54 -145,54 -59,0 -79,-61 -88,-117 -6,-36 -4,-67 1,-100 10,-61 9,-285 -4,-339 -21,0 -44,-4 -54,-5 -17,0 -35,5 -60,5z"/>
   <path class="fil0" d="M6756 9233l16 0c2,30 48,152 61,206l-138 0c2,-58 50,-156 61,-206zm-281 435c37,0 92,6 121,-8 16,-8 12,18 38,-62 27,-85 -10,-68 221,-68 44,0 35,138 84,138l107 0c0,-58 -158,-434 -185,-501l-66 -170 -54 0c-50,75 -195,481 -235,580 -12,31 -24,57 -31,91z"/>
   <path class="fil0" d="M3420 9226c6,65 55,140 61,213l-137 0c2,-24 53,-196 76,-213zm-274 442c103,0 121,30 160,-138l213 0c75,143 -10,138 160,138 43,0 -11,-105 -33,-158l-203 -513 -61 0 -132 341c-23,59 -44,110 -67,168 -25,64 -79,162 -37,162z"/>
   <path class="fil0" d="M10771 9233l15 0c3,32 57,162 61,206l-137 0c4,-49 48,-152 61,-206zm-145 435c3,-35 34,-138 69,-138 268,0 163,-14 243,138l130 0c-14,-60 -240,-631 -267,-671l-53 0c-7,28 -24,65 -36,94l-191 480c-48,121 -52,97 105,97z"/>
   <path class="fil0" d="M1782 9317l-38 0c-20,0 -21,-4 -38,-8l0 -198 69 0c158,0 159,206 7,206zm-190 -312c-25,52 -8,78 -8,145l0 518 122 0 0 -237c156,0 320,-23 320,-228 0,-239 -276,-198 -434,-198z"/>
   <path class="fil0" d="M8196 9233l15 0c15,62 59,173 61,206l-137 0c6,-65 46,-142 61,-206zm-145 435c0,-2 31,-138 61,-138l183 0c23,0 16,6 25,22l44 116 129 0 -197 -512c-12,-30 -21,-49 -34,-80 -35,-88 -8,-79 -74,-79 -29,0 -65,130 -86,181l-180 461c-9,34 -9,12 1,21 13,13 99,8 128,8z"/>
   <path class="fil0" d="M152 9172c0,226 275,167 275,336 0,64 -55,53 -115,53 -54,0 -71,-28 -114,-38 -28,41 -25,64 -46,106 25,13 43,24 73,34 229,80 410,-116 299,-284 -20,-31 -44,-47 -77,-67 -99,-60 -165,-63 -165,-147 0,-106 157,-49 205,-23 18,-32 23,-67 39,-99 -29,-20 -21,-22 -64,-36 -156,-50 -310,22 -310,165z"/>
   <path class="fil0" d="M10108 9668c146,0 122,24 122,-122 0,-211 -4,-142 124,-371 20,-36 78,-131 82,-170l-122 0 -145 266c-28,-20 -148,-250 -152,-266l-130 0c39,81 -13,1 75,146 28,47 53,92 80,141 31,57 59,73 59,162 -1,70 -6,156 7,214z"/>
   <path class="fil0" d="M3885 9325l7 335c34,1 48,8 92,8l320 0c4,-53 7,-25 7,-107l-297 -8 0 -548c-40,0 -63,-13 -99,-1 -30,10 -24,-1 -23,92 1,49 -6,66 -7,107 -2,39 0,82 0,122z"/>
   <path class="fil0" d="M9605 9005l-30 0c0,109 7,259 -6,352l-2 250c-1,71 -12,61 107,61 17,0 23,-6 23,-23l0 -610c0,-24 -16,-28 -37,-32 -37,-8 -22,2 -55,2z"/>
   <path class="fil0" d="M4502 9363l0 84 243 7 0 -114 -220 0c-18,0 -23,5 -23,23z"/>
   <path class="fil0" d="M2361 8304c-36,-18 -153,-6 -204,-6l0 -223c-10,7 -10,2 -9,46l1 167c9,27 161,16 212,16z"/>
   <path class="fil0" d="M7244 9662c15,7 100,16 116,0 13,-13 6,-110 6,-137 -4,6 -6,6 -9,20 -1,3 -1,12 -1,15l0 102 -112 0z"/>
   <path class="fil0" d="M11258 9660c11,7 -13,4 23,8 6,0 23,0 30,0 23,-1 46,0 69,0l0 -112c-15,22 -8,73 -8,104l-114 0z"/>
  </g>
 </g>
</svg>
