<svg width="505" height="417" viewBox="0 0 505 417" fill="none" xmlns="http://www.w3.org/2000/svg">
<path d="M4.14655 35V0.0290744H19.284C22.4147 0.0290744 25.1125 0.545312 27.3772 1.57779C29.642 2.57696 31.3906 4.02575 32.6229 5.92417C33.8552 7.8226 34.4713 10.0874 34.4713 12.7185C34.4713 15.3164 33.8552 17.5645 32.6229 19.4629C31.3906 21.3613 29.642 22.8268 27.3772 23.8593C25.1125 24.8584 22.4147 25.358 19.284 25.358H8.64281L12.2398 21.711V35H4.14655ZM12.2398 22.6103L8.64281 18.7635H18.8343C21.3323 18.7635 23.1974 18.2306 24.4297 17.1648C25.662 16.099 26.2782 14.6169 26.2782 12.7185C26.2782 10.7868 25.662 9.28804 24.4297 8.22226C23.1974 7.15648 21.3323 6.62359 18.8343 6.62359H8.64281L12.2398 2.77679V22.6103ZM47.6932 14.1174H64.5292V20.4121H47.6932V14.1174ZM48.2927 28.5054H67.3268V35H40.2493V0.0290744H66.6774V6.52367H48.2927V28.5054ZM73.7664 35V0.0290744H80.4608L95.3485 24.7086H91.8014L106.439 0.0290744H113.084L113.184 35H105.59L105.54 11.6694H106.939L95.2485 31.3031H91.6016L79.6615 11.6694H81.3601V35H73.7664ZM121.481 35V0.0290744H129.574V35H121.481ZM137.873 35V0.0290744H145.967V28.4055H163.502V35H137.873ZM168.024 35V0.0290744H176.117V35H168.024ZM208.397 0.0290744H216.49V35H208.397V0.0290744ZM192.51 35H184.417V0.0290744H192.51V35ZM208.996 20.6619H191.91V13.8176H208.996V20.6619ZM220.168 35L235.755 0.0290744H243.748L259.385 35H250.892L238.103 4.12567H241.3L228.461 35H220.168ZM227.961 27.5062L230.109 21.3613H248.095L250.293 27.5062H227.961ZM263.013 35V0.0290744H269.708L290.341 25.2081H287.093V0.0290744H295.087V35H288.442L267.759 9.82093H271.007V35H263.013ZM11.7277 248.45C9.62949 248.45 7.61867 248.175 5.69526 247.625C3.77186 247.051 2.22315 246.314 1.04913 245.415L3.10991 240.843C4.23398 241.643 5.55788 242.305 7.08161 242.829C8.63032 243.329 10.1915 243.579 11.7652 243.579C12.9642 243.579 13.9259 243.466 14.6503 243.241C15.3997 242.992 15.9492 242.654 16.2989 242.23C16.6487 241.805 16.8235 241.318 16.8235 240.769C16.8235 240.069 16.5487 239.52 15.9992 239.12C15.4497 238.695 14.7253 238.358 13.826 238.108C12.9268 237.833 11.9276 237.584 10.8285 237.359C9.75439 237.109 8.66779 236.809 7.56871 236.46C6.4946 236.11 5.50792 235.66 4.60867 235.111C3.70942 234.561 2.97253 233.837 2.39801 232.938C1.84846 232.038 1.57369 230.889 1.57369 229.49C1.57369 227.992 1.97336 226.63 2.77269 225.406C3.59701 224.157 4.82099 223.171 6.44464 222.446C8.09327 221.697 10.1541 221.322 12.627 221.322C14.2756 221.322 15.8993 221.522 17.498 221.922C19.0966 222.296 20.5079 222.871 21.7319 223.645L19.8585 228.254C18.6345 227.554 17.4105 227.042 16.1865 226.718C14.9626 226.368 13.7636 226.193 12.5895 226.193C11.4155 226.193 10.4538 226.331 9.70443 226.605C8.95505 226.88 8.418 227.242 8.09327 227.692C7.76854 228.117 7.60618 228.616 7.60618 229.191C7.60618 229.865 7.88095 230.415 8.43049 230.839C8.98003 231.239 9.70443 231.564 10.6037 231.813C11.5029 232.063 12.4896 232.313 13.5637 232.563C14.6628 232.813 15.7494 233.1 16.8235 233.425C17.9226 233.749 18.9218 234.186 19.821 234.736C20.7203 235.286 21.4447 236.01 21.9942 236.909C22.5687 237.808 22.856 238.945 22.856 240.319C22.856 241.793 22.4438 243.142 21.6195 244.366C20.7952 245.59 19.5587 246.576 17.9101 247.326C16.2865 248.075 14.2257 248.45 11.7277 248.45ZM27.0036 248V221.772H32.0244L43.1902 240.281H40.5299L51.5082 221.772H56.4916L56.5665 248H50.8713L50.8338 230.502H51.8829L43.1152 245.227H40.38L31.4249 230.502H32.6989V248H27.0036ZM62.7893 248V221.772H74.1424C76.4904 221.772 78.5137 222.159 80.2123 222.933C81.9109 223.683 83.2223 224.769 84.1465 226.193C85.0708 227.617 85.5329 229.316 85.5329 231.289C85.5329 233.237 85.0708 234.923 84.1465 236.347C83.2223 237.771 81.9109 238.87 80.2123 239.644C78.5137 240.394 76.4904 240.769 74.1424 240.769H66.1615L68.8592 238.033V248H62.7893ZM68.8592 238.708L66.1615 235.823H73.8051C75.6786 235.823 77.0774 235.423 78.0016 234.624C78.9259 233.824 79.388 232.713 79.388 231.289C79.388 229.84 78.9259 228.716 78.0016 227.917C77.0774 227.117 75.6786 226.718 73.8051 226.718H66.1615L68.8592 223.833V238.708ZM102.934 248.45C100.886 248.45 98.975 248.112 97.2015 247.438C95.453 246.764 93.9292 245.814 92.6303 244.59C91.3564 243.366 90.3572 241.93 89.6328 240.281C88.9334 238.633 88.5837 236.834 88.5837 234.886C88.5837 232.938 88.9334 231.139 89.6328 229.49C90.3572 227.842 91.3689 226.405 92.6678 225.181C93.9667 223.957 95.4904 223.008 97.239 222.334C98.9875 221.659 100.886 221.322 102.934 221.322C105.008 221.322 106.906 221.659 108.63 222.334C110.378 223.008 111.889 223.957 113.163 225.181C114.462 226.38 115.474 227.804 116.198 229.453C116.923 231.102 117.285 232.913 117.285 234.886C117.285 236.834 116.923 238.645 116.198 240.319C115.474 241.968 114.462 243.404 113.163 244.628C111.889 245.827 110.378 246.764 108.63 247.438C106.906 248.112 105.008 248.45 102.934 248.45ZM111.515 254.032C110.49 254.032 109.516 253.92 108.592 253.695C107.693 253.47 106.794 253.108 105.894 252.609C105.02 252.109 104.096 251.435 103.122 250.585C102.172 249.736 101.136 248.687 100.012 247.438L106.381 245.827C107.056 246.751 107.68 247.488 108.255 248.037C108.829 248.587 109.379 248.974 109.903 249.199C110.453 249.424 111.028 249.536 111.627 249.536C113.226 249.536 114.649 248.887 115.898 247.588L118.596 250.81C116.823 252.958 114.462 254.032 111.515 254.032ZM102.934 243.279C104.108 243.279 105.182 243.079 106.157 242.679C107.156 242.28 108.03 241.705 108.779 240.956C109.529 240.206 110.103 239.32 110.503 238.296C110.928 237.246 111.14 236.11 111.14 234.886C111.14 233.637 110.928 232.5 110.503 231.476C110.103 230.452 109.529 229.565 108.779 228.816C108.03 228.067 107.156 227.492 106.157 227.092C105.182 226.693 104.108 226.493 102.934 226.493C101.76 226.493 100.674 226.693 99.6744 227.092C98.6753 227.492 97.801 228.067 97.0516 228.816C96.3272 229.565 95.7527 230.452 95.3281 231.476C94.9284 232.5 94.7286 233.637 94.7286 234.886C94.7286 236.11 94.9284 237.246 95.3281 238.296C95.7527 239.32 96.3272 240.206 97.0516 240.956C97.801 241.705 98.6753 242.28 99.6744 242.679C100.674 243.079 101.76 243.279 102.934 243.279ZM129.011 248L140.701 221.772H146.696L158.424 248H152.054L142.462 224.844H144.86L135.231 248H129.011ZM134.856 242.38L136.467 237.771H149.956L151.605 242.38H134.856ZM161.145 248V221.772H167.215V243.054H180.367V248H161.145ZM182.597 239.794V235.111H193.2V239.794H182.597ZM198.211 248V221.772H203.232L214.398 240.281H211.738L222.716 221.772H227.699L227.774 248H222.079L222.042 230.502H223.091L214.323 245.227H211.588L202.633 230.502H203.907V248H198.211ZM245.65 248.45C241.928 248.45 239.018 247.413 236.92 245.34C234.821 243.266 233.772 240.306 233.772 236.46V221.772H239.842V236.235C239.842 238.733 240.354 240.531 241.378 241.63C242.403 242.729 243.839 243.279 245.687 243.279C247.536 243.279 248.972 242.729 249.996 241.63C251.02 240.531 251.532 238.733 251.532 236.235V221.772H257.527V236.46C257.527 240.306 256.478 243.266 254.38 245.34C252.282 247.413 249.372 248.45 245.65 248.45ZM259.53 248L271.22 221.772H277.215L288.943 248H282.573L272.981 224.844H275.379L265.75 248H259.53ZM265.375 242.38L266.986 237.771H280.475L282.123 242.38H265.375ZM291.664 248V221.772H296.685L312.159 240.656H309.724V221.772H315.719V248H310.736L295.223 229.116H297.659V248H291.664ZM318.477 248L330.168 221.772H336.163L347.89 248H341.521L331.929 224.844H334.327L324.697 248H318.477ZM324.322 242.38L325.934 237.771H339.422L341.071 242.38H324.322ZM355.479 248L346.899 221.772H353.194L360.65 245.002H357.503L365.296 221.772H370.916L378.41 245.002H375.375L383.019 221.772H388.827L380.246 248H373.727L367.095 227.617H368.818L361.999 248H355.479ZM392.215 248V221.772H398.285V248H392.215ZM411.029 248V237.284L412.415 240.956L400.875 221.772H407.32L416.162 236.497H412.453L421.333 221.772H427.291L415.75 240.956L417.099 237.284V248H411.029ZM424.773 248L436.463 221.772H442.458L454.186 248H447.817L438.225 224.844H440.623L430.993 248H424.773ZM430.618 242.38L432.229 237.771H445.718L447.367 242.38H430.618ZM474.892 221.772H480.962V248H474.892V221.772ZM462.977 248H456.907V221.772H462.977V248ZM475.342 237.246H462.528V232.113H475.342V237.246ZM6.86929 414V392.143L63.0726 339.062C67.5133 335.038 70.7745 331.43 72.8561 328.238C74.9377 325.046 76.3254 322.132 77.0193 319.495C77.8519 316.859 78.2683 314.43 78.2683 312.21C78.2683 306.381 76.256 301.94 72.2316 298.887C68.3459 295.696 62.5868 294.1 54.9543 294.1C48.8483 294.1 43.1586 295.279 37.8852 297.638C32.7505 299.998 28.3792 303.675 24.7711 308.671L0.20816 292.851C5.7591 284.524 13.5304 277.933 23.5221 273.076C33.5138 268.218 45.032 265.79 58.0767 265.79C68.901 265.79 78.3376 267.594 86.3865 271.202C94.5741 274.671 100.888 279.598 105.329 285.981C109.909 292.365 112.198 299.998 112.198 308.879C112.198 313.597 111.574 318.316 110.325 323.034C109.215 327.613 106.856 332.471 103.247 337.605C99.7781 342.74 94.6435 348.499 87.8436 354.882L41.2157 398.804L34.7628 386.523H116.986V414H6.86929ZM193.348 416.498C181.414 416.498 170.728 413.584 161.292 407.755C151.855 401.788 144.431 393.184 139.019 381.943C133.606 370.703 130.9 357.103 130.9 341.144C130.9 325.185 133.606 311.585 139.019 300.345C144.431 289.104 151.855 280.569 161.292 274.741C170.728 268.774 181.414 265.79 193.348 265.79C205.422 265.79 216.107 268.774 225.405 274.741C234.842 280.569 242.266 289.104 247.678 300.345C253.09 311.585 255.796 325.185 255.796 341.144C255.796 357.103 253.09 370.703 247.678 381.943C242.266 393.184 234.842 401.788 225.405 407.755C216.107 413.584 205.422 416.498 193.348 416.498ZM193.348 387.98C199.038 387.98 203.965 386.384 208.128 383.192C212.43 380 215.76 374.935 218.119 367.997C220.617 361.058 221.866 352.107 221.866 341.144C221.866 330.181 220.617 321.23 218.119 314.291C215.76 307.353 212.43 302.287 208.128 299.096C203.965 295.904 199.038 294.308 193.348 294.308C187.797 294.308 182.871 295.904 178.569 299.096C174.406 302.287 171.075 307.353 168.577 314.291C166.218 321.23 165.039 330.181 165.039 341.144C165.039 352.107 166.218 361.058 168.577 367.997C171.075 374.935 174.406 380 178.569 383.192C182.871 386.384 187.797 387.98 193.348 387.98ZM270.119 414V392.143L326.322 339.062C330.763 335.038 334.024 331.43 336.106 328.238C338.187 325.046 339.575 322.132 340.269 319.495C341.101 316.859 341.518 314.43 341.518 312.21C341.518 306.381 339.506 301.94 335.481 298.887C331.595 295.696 325.836 294.1 318.204 294.1C312.098 294.1 306.408 295.279 301.135 297.638C296 299.998 291.629 303.675 288.021 308.671L263.458 292.851C269.009 284.524 276.78 277.933 286.772 273.076C296.763 268.218 308.282 265.79 321.326 265.79C332.151 265.79 341.587 267.594 349.636 271.202C357.824 274.671 364.138 279.598 368.579 285.981C373.158 292.365 375.448 299.998 375.448 308.879C375.448 313.597 374.823 318.316 373.574 323.034C372.464 327.613 370.105 332.471 366.497 337.605C363.028 342.74 357.893 348.499 351.093 354.882L304.465 398.804L298.012 386.523H380.236V414H270.119ZM443.692 416.498C433.561 416.498 423.5 415.18 413.509 412.543C403.656 409.767 395.191 405.882 388.113 400.886L401.435 375.074C406.986 379.098 413.37 382.29 420.586 384.649C427.941 387.009 435.366 388.188 442.859 388.188C451.324 388.188 457.986 386.523 462.843 383.192C467.7 379.862 470.128 375.213 470.128 369.246C470.128 365.499 469.157 362.168 467.214 359.254C465.271 356.34 461.802 354.119 456.806 352.593C451.949 351.066 445.08 350.303 436.198 350.303H398.937L406.431 268.288H495.316V295.349H418.505L435.99 279.945L430.786 338.438L413.301 323.034H444.108C458.541 323.034 470.128 325.046 478.871 329.071C487.753 332.956 494.206 338.299 498.23 345.099C502.254 351.899 504.267 359.601 504.267 368.205C504.267 376.809 502.116 384.788 497.814 392.143C493.512 399.359 486.851 405.257 477.83 409.837C468.949 414.278 457.569 416.498 443.692 416.498Z" fill="white"/>
<path d="M324.753 27.0066L324.303 17.6644L341.039 0.0290744H350.032L334.945 16.2656L330.448 21.0616L324.753 27.0066ZM317.509 35V0.0290744H325.552V35H317.509ZM341.439 35L328.999 19.7627L334.295 14.0174L350.881 35H341.439ZM361.934 14.1174H378.77V20.4121H361.934V14.1174ZM362.533 28.5054H381.568V35H354.49V0.0290744H380.918V6.52367H362.533V28.5054ZM395.251 35V6.62359H384.06V0.0290744H414.535V6.62359H403.344V35H395.251ZM433.841 35.5995C428.879 35.5995 424.999 34.2173 422.201 31.4529C419.403 28.6886 418.004 24.7419 418.004 19.6128V0.0290744H426.098V19.313C426.098 22.6436 426.78 25.0416 428.146 26.5071C429.511 27.9725 431.427 28.7052 433.891 28.7052C436.356 28.7052 438.271 27.9725 439.636 26.5071C441.002 25.0416 441.685 22.6436 441.685 19.313V0.0290744H449.678V19.6128C449.678 24.7419 448.279 28.6886 445.482 31.4529C442.684 34.2173 438.804 35.5995 433.841 35.5995ZM452.348 35L467.935 0.0290744H475.928L491.565 35H483.072L470.283 4.12567H473.48L460.641 35H452.348ZM460.141 27.5062L462.289 21.3613H480.275L482.473 27.5062H460.141ZM88.0518 204.498C76.5336 204.498 65.848 202.624 55.9951 198.878C46.281 195.131 37.8158 189.857 30.5996 183.057C23.5221 176.258 17.9712 168.278 13.9467 159.119C10.0611 149.96 8.11825 139.968 8.11825 129.144C8.11825 118.32 10.0611 108.328 13.9467 99.1688C17.9712 90.0098 23.5915 82.0303 30.8077 75.2304C38.0239 68.4305 46.4891 63.1571 56.2033 59.4102C65.9174 55.6633 76.4642 53.7899 87.8436 53.7899C99.3618 53.7899 109.909 55.6633 119.484 59.4102C129.198 63.1571 137.594 68.4305 144.671 75.2304C151.888 82.0303 157.508 90.0098 161.532 99.1688C165.557 108.189 167.569 118.181 167.569 129.144C167.569 139.968 165.557 150.029 161.532 159.327C157.508 168.486 151.888 176.466 144.671 183.266C137.594 189.927 129.198 195.131 119.484 198.878C109.909 202.624 99.4312 204.498 88.0518 204.498ZM87.8436 175.772C94.366 175.772 100.333 174.662 105.745 172.441C111.296 170.221 116.153 167.029 120.317 162.866C124.48 158.703 127.672 153.776 129.892 148.086C132.251 142.397 133.431 136.083 133.431 129.144C133.431 122.205 132.251 115.891 129.892 110.201C127.672 104.512 124.48 99.5852 120.317 95.4219C116.292 91.2587 111.505 88.0669 105.954 85.8466C100.403 83.6262 94.366 82.516 87.8436 82.516C81.3213 82.516 75.2846 83.6262 69.7337 85.8466C64.3215 88.0669 59.5338 91.2587 55.3706 95.4219C51.2074 99.5852 47.9462 104.512 45.5871 110.201C43.3667 115.891 42.2565 122.205 42.2565 129.144C42.2565 135.944 43.3667 142.258 45.5871 148.086C47.9462 153.776 51.138 158.703 55.1625 162.866C59.3257 167.029 64.1827 170.221 69.7337 172.441C75.2846 174.662 81.3213 175.772 87.8436 175.772ZM240.789 204.498C229.132 204.498 217.961 202.971 207.276 199.918C196.59 196.727 187.986 192.633 181.464 187.637L192.913 162.241C199.157 166.682 206.512 170.36 214.977 173.274C223.581 176.049 232.255 177.437 240.998 177.437C247.659 177.437 253.001 176.813 257.026 175.564C261.189 174.176 264.242 172.302 266.185 169.943C268.128 167.584 269.099 164.878 269.099 161.825C269.099 157.939 267.573 154.886 264.52 152.666C261.467 150.307 257.442 148.433 252.446 147.046C247.45 145.519 241.9 144.131 235.794 142.882C229.826 141.495 223.79 139.829 217.684 137.887C211.716 135.944 206.235 133.446 201.239 130.393C196.243 127.34 192.149 123.315 188.957 118.32C185.904 113.324 184.378 106.94 184.378 99.1688C184.378 90.8424 186.598 83.2793 191.039 76.4794C195.619 69.5407 202.418 64.0591 211.439 60.0347C220.598 55.8715 232.047 53.7899 245.785 53.7899C254.944 53.7899 263.965 54.9001 272.846 57.1205C281.728 59.2021 289.568 62.3939 296.368 66.6958L285.96 92.2995C279.16 88.4139 272.36 85.569 265.56 83.765C258.761 81.8221 252.099 80.8507 245.577 80.8507C239.055 80.8507 233.712 81.614 229.549 83.1405C225.386 84.667 222.402 86.6792 220.598 89.1771C218.794 91.5363 217.892 94.3118 217.892 97.5035C217.892 101.25 219.418 104.303 222.471 106.663C225.524 108.883 229.549 110.687 234.545 112.075C239.54 113.463 245.022 114.85 250.989 116.238C257.095 117.626 263.132 119.222 269.099 121.026C275.205 122.83 280.756 125.258 285.752 128.311C290.748 131.364 294.772 135.389 297.825 140.385C301.017 145.38 302.613 151.695 302.613 159.327C302.613 167.515 300.323 175.009 295.744 181.808C291.164 188.608 284.295 194.09 275.136 198.253C266.116 202.416 254.667 204.498 240.789 204.498ZM325.655 202V56.2878H359.377V202H325.655ZM441.835 204.498C430.178 204.498 419.007 202.971 408.321 199.918C397.635 196.727 389.031 192.633 382.509 187.637L393.958 162.241C400.203 166.682 407.558 170.36 416.023 173.274C424.627 176.049 433.3 177.437 442.043 177.437C448.704 177.437 454.047 176.813 458.071 175.564C462.234 174.176 465.287 172.302 467.23 169.943C469.173 167.584 470.145 164.878 470.145 161.825C470.145 157.939 468.618 154.886 465.565 152.666C462.512 150.307 458.488 148.433 453.492 147.046C448.496 145.519 442.945 144.131 436.839 142.882C430.872 141.495 424.835 139.829 418.729 137.887C412.762 135.944 407.28 133.446 402.284 130.393C397.288 127.34 393.195 123.315 390.003 118.32C386.95 113.324 385.423 106.94 385.423 99.1688C385.423 90.8424 387.644 83.2793 392.084 76.4794C396.664 69.5407 403.464 64.0591 412.484 60.0347C421.643 55.8715 433.092 53.7899 446.831 53.7899C455.99 53.7899 465.01 54.9001 473.891 57.1205C482.773 59.2021 490.614 62.3939 497.414 66.6958L487.006 92.2995C480.206 88.4139 473.406 85.569 466.606 83.765C459.806 81.8221 453.145 80.8507 446.622 80.8507C440.1 80.8507 434.757 81.614 430.594 83.1405C426.431 84.667 423.447 86.6792 421.643 89.1771C419.839 91.5363 418.937 94.3118 418.937 97.5035C418.937 101.25 420.464 104.303 423.517 106.663C426.57 108.883 430.594 110.687 435.59 112.075C440.586 113.463 446.067 114.85 452.035 116.238C458.141 117.626 464.177 119.222 470.145 121.026C476.251 122.83 481.802 125.258 486.797 128.311C491.793 131.364 495.818 135.389 498.871 140.385C502.062 145.38 503.658 151.695 503.658 159.327C503.658 167.515 501.369 175.009 496.789 181.808C492.21 188.608 485.34 194.09 476.181 198.253C467.161 202.416 455.712 204.498 441.835 204.498Z" fill="#FFC400"/>
</svg>
