<svg xmlns="http://www.w3.org/2000/svg" viewBox="0 0 100 100" preserveAspectRatio="xMidYMid" width="194" height="194" style="shape-rendering: auto; display: block; background: rgb(255, 255, 255);" xmlns:xlink="http://www.w3.org/1999/xlink"><g><g transform="rotate(0 50 50)">
  <rect fill="#8071fe" height="12" width="12" ry="6" rx="6" y="24" x="44">
    <animate repeatCount="indefinite" begin="-0.319744204636291s" dur="0.3597122302158274s" keyTimes="0;1" values="1;0" attributeName="opacity"></animate>
  </rect>
</g><g transform="rotate(40 50 50)">
  <rect fill="#8071fe" height="12" width="12" ry="6" rx="6" y="24" x="44">
    <animate repeatCount="indefinite" begin="-0.2797761790567546s" dur="0.3597122302158274s" keyTimes="0;1" values="1;0" attributeName="opacity"></animate>
  </rect>
</g><g transform="rotate(80 50 50)">
  <rect fill="#8071fe" height="12" width="12" ry="6" rx="6" y="24" x="44">
    <animate repeatCount="indefinite" begin="-0.23980815347721823s" dur="0.3597122302158274s" keyTimes="0;1" values="1;0" attributeName="opacity"></animate>
  </rect>
</g><g transform="rotate(120 50 50)">
  <rect fill="#8071fe" height="12" width="12" ry="6" rx="6" y="24" x="44">
    <animate repeatCount="indefinite" begin="-0.19984012789768185s" dur="0.3597122302158274s" keyTimes="0;1" values="1;0" attributeName="opacity"></animate>
  </rect>
</g><g transform="rotate(160 50 50)">
  <rect fill="#8071fe" height="12" width="12" ry="6" rx="6" y="24" x="44">
    <animate repeatCount="indefinite" begin="-0.1598721023181455s" dur="0.3597122302158274s" keyTimes="0;1" values="1;0" attributeName="opacity"></animate>
  </rect>
</g><g transform="rotate(200 50 50)">
  <rect fill="#8071fe" height="12" width="12" ry="6" rx="6" y="24" x="44">
    <animate repeatCount="indefinite" begin="-0.11990407673860912s" dur="0.3597122302158274s" keyTimes="0;1" values="1;0" attributeName="opacity"></animate>
  </rect>
</g><g transform="rotate(240 50 50)">
  <rect fill="#8071fe" height="12" width="12" ry="6" rx="6" y="24" x="44">
    <animate repeatCount="indefinite" begin="-0.07993605115907275s" dur="0.3597122302158274s" keyTimes="0;1" values="1;0" attributeName="opacity"></animate>
  </rect>
</g><g transform="rotate(280 50 50)">
  <rect fill="#8071fe" height="12" width="12" ry="6" rx="6" y="24" x="44">
    <animate repeatCount="indefinite" begin="-0.039968025579536375s" dur="0.3597122302158274s" keyTimes="0;1" values="1;0" attributeName="opacity"></animate>
  </rect>
</g><g transform="rotate(320 50 50)">
  <rect fill="#8071fe" height="12" width="12" ry="6" rx="6" y="24" x="44">
    <animate repeatCount="indefinite" begin="0s" dur="0.3597122302158274s" keyTimes="0;1" values="1;0" attributeName="opacity"></animate>
  </rect>
</g><g></g></g><!-- [ldio] generated by https://loading.io --></svg>