<?xml version="1.0" encoding="UTF-8"?>
<!DOCTYPE svg PUBLIC "-//W3C//DTD SVG 1.1//EN" "http://www.w3.org/Graphics/SVG/1.1/DTD/svg11.dtd">
<!-- Creator: CorelDRAW X7 -->
<svg xmlns="http://www.w3.org/2000/svg" xml:space="preserve" width="1.28133in" height="1.28655in" version="1.1" style="shape-rendering:geometricPrecision; text-rendering:geometricPrecision; image-rendering:optimizeQuality; fill-rule:evenodd; clip-rule:evenodd"
viewBox="0 0 1193 1198"
 xmlns:xlink="http://www.w3.org/1999/xlink">
 <defs>
  <style type="text/css">
   <![CDATA[
    .fil0 {fill:#FEFEFE}
   ]]>
  </style>
 </defs>
 <g id="Layer_x0020_1">
  <metadata id="CorelCorpID_0Corel-Layer"/>
  <path class="fil0" d="M594 101c182,0 323,88 409,210 9,12 17,25 24,38 8,14 15,25 21,41 65,159 60,311 -29,461 -10,17 -21,33 -33,48 -5,5 -6,7 -10,12 -84,94 -181,153 -310,171 -48,7 -106,6 -152,-3 -62,-11 -117,-32 -169,-63 -22,-13 -12,-9 -61,3l-139 36c1,-14 41,-150 47,-173 3,-13 -9,-23 -23,-48 -46,-82 -55,-140 -64,-233 -1,-15 2,-30 3,-47 1,-62 29,-137 56,-191 11,-23 24,-41 38,-61 12,-19 30,-36 44,-53l54 -47c83,-62 183,-101 294,-101zm-297 353c0,88 55,164 111,226 5,6 5,8 11,14 6,6 9,8 14,15 7,10 16,19 26,27 17,13 32,28 59,49 58,44 163,95 240,95 38,0 73,-14 100,-36 30,-25 43,-50 43,-98 0,-21 -33,-29 -56,-40 -12,-6 -21,-11 -33,-17 -11,-6 -22,-10 -33,-15 -38,-19 -37,-5 -57,20 -8,9 -16,17 -23,26 -3,5 -20,24 -25,24 -24,0 -106,-50 -132,-74 -29,-28 -21,-17 -50,-53 -10,-12 -41,-52 -41,-67 0,-19 50,-48 50,-80 0,-8 -31,-79 -37,-92 -13,-30 -16,-55 -38,-58 -49,-5 -69,-1 -100,45 -15,22 -29,53 -29,89zm-292 138c0,63 10,117 24,168 6,24 16,47 25,70 31,76 36,33 19,101 -21,83 -55,188 -73,267l299 -78c20,-5 16,-5 34,4 31,16 66,31 100,40 102,28 192,32 298,9 109,-24 208,-81 286,-158l35 -38c21,-22 45,-60 61,-86 19,-31 34,-66 47,-101 52,-139 40,-308 -19,-439 -39,-87 -87,-145 -154,-208 -90,-83 -246,-143 -367,-143 -106,0 -191,14 -274,56 -41,21 -77,40 -111,69l-60 52c-46,47 -93,116 -118,175l-29 78c-14,44 -23,112 -23,162z"/>
 </g>
</svg>
