<?xml version="1.0" encoding="UTF-8"?>
<!DOCTYPE svg PUBLIC "-//W3C//DTD SVG 1.1//EN" "http://www.w3.org/Graphics/SVG/1.1/DTD/svg11.dtd">
<!-- Creator: CorelDRAW X7 -->
<svg xmlns="http://www.w3.org/2000/svg" xml:space="preserve" width="1.33669in" height="0.940717in" version="1.1" style="shape-rendering:geometricPrecision; text-rendering:geometricPrecision; image-rendering:optimizeQuality; fill-rule:evenodd; clip-rule:evenodd"
viewBox="0 0 189 133"
 xmlns:xlink="http://www.w3.org/1999/xlink">
 <defs>
  <style type="text/css">
   <![CDATA[
    .fil0 {fill:#FEFEFE}
   ]]>
  </style>
 </defs>
 <g id="Layer_x0020_1">
  <metadata id="CorelCorpID_0Corel-Layer"/>
  <path class="fil0" d="M187 29c0,0 -2,-13 -7,-19 -8,-8 -16,-8 -19,-8 -27,-2 -67,-2 -67,-2l0 0c0,0 -39,0 -66,2 -3,0 -11,0 -19,8 -5,6 -7,19 -7,19 -1,10 -2,20 -2,30l0 15c0,10 1,20 2,30 1,10 2,13 7,19 8,8 17,7 21,8 15,2 65,2 65,2 0,0 39,0 66,-2 3,0 11,0 19,-8 5,-6 7,-19 7,-19 1,-10 2,-20 2,-30l0 -15c0,-10 -1,-20 -2,-30l0 0zm-112 62l0 -53 51 27 -51 26 0 0z"/>
 </g>
</svg>
