<?xml version="1.0" encoding="UTF-8"?>
<!DOCTYPE svg PUBLIC "-//W3C//DTD SVG 1.1//EN" "http://www.w3.org/Graphics/SVG/1.1/DTD/svg11.dtd">
<!-- Creator: CorelDRAW X7 -->
<svg xmlns="http://www.w3.org/2000/svg" xml:space="preserve" width="8.13964in" height="3.53227in" version="1.1" style="shape-rendering:geometricPrecision; text-rendering:geometricPrecision; image-rendering:optimizeQuality; fill-rule:evenodd; clip-rule:evenodd"
viewBox="0 0 4326 1877"
 xmlns:xlink="http://www.w3.org/1999/xlink">
 <defs>
  <style type="text/css">
   <![CDATA[
    .fil0 {fill:#FFC400}
    .fil1 {fill:white}
    .fil2 {fill:white}
   ]]>
  </style>
 </defs>
 <g id="Layer_x0020_1">
  <metadata id="CorelCorpID_0Corel-Layer"/>
  <path class="fil0" d="M644 613l58 3c7,2 7,4 17,5 16,2 34,7 48,13 3,1 5,2 8,3l49 24c10,6 37,27 56,45 19,18 34,40 48,63 2,3 2,3 3,6 0,1 1,1 1,2l17 34c6,12 17,50 19,64 1,16 6,18 6,37 -1,16 2,24 2,41 0,16 -3,24 -2,39l-9 54c-2,8 -3,6 -5,16 -3,14 -8,25 -14,38l-17 35c-2,5 -1,1 -4,6 -22,34 -33,47 -62,74l-3 3c0,0 -1,0 -1,1 -17,16 -38,26 -58,38l-29 13c-10,5 -2,2 -16,5 -8,2 -7,3 -14,6 -7,2 -12,1 -19,3 -18,6 -15,5 -37,7 -26,2 -98,4 -117,-4 -10,-4 -3,-3 -17,-4 -10,-1 -29,-9 -38,-13l-23 -10c-24,-9 -45,-25 -65,-41l-29 -27c-1,-1 -3,-3 -3,-3 -19,-21 -40,-51 -50,-77l-14 -29c-3,-7 0,-9 -3,-17 -4,-9 -3,-1 -5,-15 -3,-17 -8,-26 -8,-35 0,-26 -5,-54 -2,-80 2,-16 -2,-44 4,-58 4,-9 5,-26 9,-35 3,-7 2,-7 4,-15l46 -85c20,-28 46,-52 73,-72l62 -34c9,-3 11,-6 22,-8 6,-1 3,0 8,-2 16,-5 27,-6 42,-11l62 -3zm-593 301c0,35 -2,73 3,108 1,8 5,18 5,29 2,16 5,26 8,42 0,0 1,6 1,6 2,8 5,11 6,21 2,10 13,40 18,49 2,5 1,2 2,6l52 93c2,2 1,2 3,5l18 24c3,4 4,6 7,10 4,4 4,5 8,8 3,3 5,6 9,10 22,23 45,46 71,65l15 11c0,1 0,1 1,1l28 19c3,2 1,1 5,3l80 40c5,2 7,4 11,5l24 9c9,2 7,2 14,5l39 9c9,1 6,2 14,5l57 10c22,0 41,6 63,6l139 -8c8,-2 8,-3 14,-4 16,-2 16,1 30,-5 8,-4 20,-4 28,-7l26 -8c4,-3 -1,-1 6,-3 2,0 3,0 6,-1 9,-3 5,-3 13,-6l125 -64 44 -34c22,-19 43,-40 62,-62 0,0 0,-1 1,-1 0,0 0,-1 1,-1l42 -58c2,-2 1,0 3,-4l33 -63c8,-15 23,-54 27,-69 1,-6 0,-8 2,-14 3,-9 3,-4 5,-13l10 -60c2,-30 6,-53 6,-85 0,-25 -5,-40 -6,-63 -1,-27 -6,-32 -8,-45l-6 -28c-3,-6 -1,-9 -3,-16 -2,-6 -3,-6 -5,-13l-9 -26c-2,-7 -3,-6 -6,-13l-5 -13c-9,-14 -15,-32 -24,-47 -2,-3 -2,-3 -3,-5l-90 -115c-27,-26 -55,-47 -85,-68l-3 -3c-3,-2 -3,-2 -6,-3 -13,-7 -26,-17 -40,-23l-4 -2c0,0 -1,0 -1,-1l-18 -9c-5,-2 -7,-2 -13,-5 -5,-2 -1,-1 -5,-3 -11,-4 -22,-6 -33,-12l-27 -9c-5,-2 -9,-2 -13,-3 -6,-2 -7,-4 -13,-5 -7,-2 -10,-1 -17,-2 -6,-2 -8,-4 -13,-5 -11,-3 -22,-1 -31,-4 -29,-7 -70,-7 -103,-7 -12,0 -23,0 -35,0l-65 4c-12,5 -14,3 -29,5 -12,2 -16,6 -28,7 -15,2 -14,5 -27,7l-28 8c-13,3 -24,10 -37,14 -2,1 -3,1 -6,2l-37 18c0,0 -1,0 -1,0 -18,10 -36,18 -52,30l-51 37c-3,2 -3,2 -5,4 -4,3 -7,5 -11,8 -6,6 -12,11 -18,17 0,0 -1,1 -1,1l-3 3c-28,25 -54,60 -74,91l-20 32c-3,6 -4,6 -7,12 -7,16 -16,31 -22,48l-13 37c-2,6 -1,9 -3,15 -3,12 -6,14 -7,28 -2,12 -6,11 -6,28 -1,23 -9,37 -9,63z"/>
  <path class="fil0" d="M1352 707l0 55c0,11 4,16 6,27 3,21 0,12 6,34 5,16 10,26 16,41l61 73c0,1 1,1 1,1 15,14 32,25 49,35l25 13c1,0 1,1 2,1l11 5c6,3 3,3 10,6 6,2 6,1 12,4 7,3 5,2 12,5 7,3 4,3 11,5l87 27c11,4 16,2 26,7 7,3 17,3 26,6 5,1 7,3 12,4 6,1 8,0 15,2 11,3 11,6 25,7l41 9c4,1 6,3 11,4 6,2 8,1 14,2l90 35c1,0 1,0 2,0 0,1 2,1 2,2l37 28c1,2 5,9 6,10l9 24 0 30c0,6 -2,3 -4,10l-8 21c0,0 -1,1 -1,1 0,0 -1,1 -1,1 -9,16 -25,26 -40,36 -8,5 -38,18 -48,19 -14,1 -14,1 -26,4 -23,7 -113,6 -139,2 -10,-1 -11,-3 -22,-4 -8,-2 -14,-1 -24,-2 -9,-1 -11,-5 -21,-6 -27,-5 -21,-6 -31,-8 -5,-1 -7,0 -12,-2l-144 -64c0,0 -1,0 -1,0 0,-1 -1,-1 -1,-1l-28 -17c-2,-2 -2,-2 -5,-4l-71 148c-6,14 -15,27 -18,41 6,10 17,15 27,22 3,2 1,1 5,3l16 10c15,8 29,17 45,23l22 10c13,7 26,8 39,14 9,4 0,2 12,4 9,2 37,13 52,16 10,1 7,0 15,3l58 11c15,1 15,4 27,6 11,2 23,0 33,1 42,6 83,6 125,6 17,0 24,-4 41,-4 7,-1 38,-3 43,-4 16,-5 27,-3 38,-7 8,-2 8,-4 17,-5 17,-3 29,-8 44,-13 5,-2 4,-1 10,-3 16,-4 46,-21 62,-29l41 -27c18,-12 34,-28 49,-44l5 -5c2,-2 4,-4 6,-6l43 -71c5,-11 9,-24 12,-35l6 -19c1,-8 1,-13 2,-20 2,-8 5,-11 5,-20l0 -55c0,-9 -5,-16 -6,-25l-8 -40c-4,-14 -13,-33 -21,-44l-14 -20c-2,-3 -1,-2 -3,-5l-1 -2c-14,-18 -30,-33 -47,-47l-71 -43c-10,-3 -18,-10 -28,-13l-61 -20c-14,-6 -36,-8 -50,-13 -6,-3 -3,-3 -12,-4 -12,-2 -13,-5 -26,-8 -5,-1 -9,0 -14,-1 -5,-1 -6,-3 -12,-5 -4,-1 -11,-2 -14,-2 -12,-3 -12,-6 -26,-7 -11,-1 -14,-4 -26,-7 -3,0 -9,0 -14,-2 -10,-2 2,-1 -25,-7l-26 -7c-8,-1 -3,-1 -11,-4 -14,-6 -25,-6 -48,-18 -10,-5 -22,-11 -30,-18 -19,-17 -20,-20 -27,-39 -10,-25 -3,-53 9,-76l14 -19c4,-4 3,-3 8,-7l79 -36c10,-1 18,0 29,-3 29,-7 67,-3 97,-3 8,0 11,2 17,3 6,2 12,3 17,3 8,0 12,-1 20,1 8,3 6,4 17,5 15,3 35,7 50,13 9,4 10,2 18,4l73 31c12,6 32,18 44,21 11,-7 14,-18 18,-31l52 -125c1,-3 1,-4 2,-7 4,-13 16,-26 0,-35l-44 -23c0,0 -1,0 -1,-1 -5,-2 0,0 -4,-2l-3 -1c-7,-3 4,2 -3,-1 -6,-3 -6,-3 -11,-6l-77 -25c-9,-1 -2,-2 -11,-4 -8,-3 -15,-2 -24,-5 -11,-4 -25,-5 -36,-9 -11,-3 -28,-2 -40,-4 -9,-2 -13,-5 -23,-6 -10,0 -21,1 -31,0 -28,-1 -81,-5 -109,-1 -20,2 -43,0 -64,6 -12,3 -29,3 -41,7 -10,3 -12,1 -21,3 -10,2 -6,4 -16,6l-19 6c-1,0 -1,0 -2,1 0,0 -1,0 -1,0l-57 23c-19,8 -35,20 -52,31 -5,3 -9,6 -14,10l-87 105c-6,10 -10,24 -15,34 -3,8 -3,9 -5,17 -2,8 -5,11 -5,19l-7 43z"/>
  <path class="fil0" d="M2836 705c0,44 -2,40 5,82 2,11 0,18 5,28 3,7 1,5 3,13 2,9 2,6 5,12 2,6 2,6 4,12 2,5 3,4 6,10 3,7 1,5 5,11l61 69c17,15 36,25 55,36l116 48c2,1 4,1 6,2l90 24c21,6 15,3 27,6 11,3 11,6 25,7l41 9c4,1 6,3 11,4 6,2 8,1 14,2l25 8c15,3 44,15 59,23l39 26c8,9 23,31 23,44 0,26 0,38 -13,60l-14 17c-14,13 -25,19 -42,27 0,0 -1,1 -1,1l-58 15c-23,7 -113,6 -139,2 -10,-1 -11,-3 -22,-4 -8,-2 -15,-1 -24,-2 -9,-1 -11,-5 -21,-6 -15,-3 -38,-7 -52,-13l-39 -14c-7,-4 -2,-2 -10,-4l-19 -8c0,0 -1,0 -1,0l-35 -17c-4,-2 -2,-2 -8,-4 -2,-1 -2,-1 -4,-2l-49 -30c-2,-2 -2,-2 -5,-4 0,0 -1,0 -1,1 0,1 -7,2 -11,15l-35 75c-8,16 -39,87 -42,98 5,8 11,11 17,15l53 32c12,7 42,19 43,19l3 2c0,0 1,1 5,3 4,1 4,0 8,2 13,4 23,10 37,13l27 8c7,2 5,2 12,5 10,3 19,3 28,6 10,5 18,2 29,6 10,3 14,5 29,5 15,1 15,4 27,6 11,2 22,0 33,1 41,6 82,6 123,6l84 -8c8,-2 9,-4 18,-4 8,-1 14,-1 20,-2 7,-2 11,-5 17,-6 25,-4 45,-13 70,-22 4,-2 4,-1 9,-3 4,-2 -1,0 4,-2 1,-1 2,-1 4,-2l41 -22c2,-2 2,-1 4,-2 5,-3 10,-7 15,-10 5,-4 8,-5 13,-9l53 -49 26 -35c2,-3 2,-3 4,-6l20 -37 17 -54c1,-11 0,-11 3,-20 5,-22 3,-49 3,-72 0,-15 -5,-19 -6,-34 0,-16 -5,-22 -8,-35l-33 -62c-1,0 -1,-1 -1,-1 -1,0 -1,-1 -1,-1l-6 -8c-2,-2 -4,-4 -5,-6l-88 -69c-4,-3 -1,-1 -6,-4l-21 -10c-4,-2 -1,-1 -8,-4 -2,-1 -5,-1 -7,-3 -1,0 -1,0 -1,0 -1,0 -1,-1 -2,-1l-34 -12c-9,-3 -6,-4 -17,-6l-32 -9c-6,-1 -8,-4 -15,-5l-34 -9c-13,-1 -17,-6 -33,-8 -10,-1 -9,-3 -17,-5 -7,-2 -10,-1 -17,-3 -20,-7 -27,-6 -33,-8l-34 -9c-8,-3 -5,-2 -16,-4 0,0 -8,-2 -8,-2 -5,-1 -3,-1 -7,-3 -8,-3 -12,-1 -19,-4 -20,-8 -40,-13 -59,-24 -1,0 -2,-1 -3,-2l-10 -5c-1,-1 -1,-1 -1,-1 -13,-8 -22,-18 -32,-30 -7,-9 -2,-1 -6,-14 -5,-18 -8,-33 -1,-51 2,-7 2,-11 4,-17 7,-18 23,-33 39,-44 3,-1 4,-2 6,-4l37 -16c7,-2 9,-2 16,-5 9,-4 23,-3 35,-5 7,-2 10,-4 18,-4 30,0 68,-4 97,3 12,3 22,2 33,3 9,1 20,6 32,8 11,1 5,0 14,3 8,4 6,2 15,4 10,2 7,3 15,5 5,2 9,2 15,4l26 10c6,3 10,2 17,6l48 23c7,4 21,13 27,11 9,-2 9,-10 11,-17l53 -129c5,-12 15,-26 15,-42 0,-6 -4,-6 -7,-8l-9 -5c-4,-3 -5,-2 -9,-5l-27 -14c-1,0 -1,0 -1,-1l-85 -33c-6,-2 -7,-1 -13,-2 -9,-1 -2,-2 -11,-4 -8,-3 -15,-2 -24,-5 -11,-4 -25,-5 -36,-9 -7,-2 -4,-1 -12,-2 -7,-1 -21,-1 -28,-2 -9,-2 -13,-5 -23,-6 -10,0 -21,1 -31,0 -10,0 -14,-2 -26,-2 -41,0 -113,-4 -145,6 -13,4 -28,2 -42,7 -10,4 -9,2 -20,4 -9,1 -8,4 -17,6l-37 11c-12,6 -26,10 -37,16l-106 74 -35 44c-11,14 -24,37 -29,55 -2,6 0,3 -3,9l-18 78z"/>
  <path class="fil0" d="M2394 422l0 1062c0,5 4,8 9,8l240 0c4,0 8,-3 8,-8l0 -1060c0,-6 -1,-6 -2,-10 -22,-6 -207,-3 -244,-3 -5,0 -11,6 -11,11z"/>
  <path class="fil1" d="M4057 1236c-47,0 -104,-4 -138,-29 -13,-10 -20,-14 -29,-32 -11,-23 -11,-58 1,-81 21,-41 66,-50 105,-58 25,-5 67,-3 94,-2 22,1 58,11 77,21 11,5 25,15 33,24 12,15 20,38 20,55 0,5 -3,22 -5,28 -6,24 -25,41 -47,52 -16,9 -27,13 -49,16 -23,4 -36,6 -62,6zm269 -110l0 15c-1,48 -17,97 -45,131 -11,12 -18,19 -30,29 -28,25 -75,47 -113,54 -18,4 -46,9 -64,9 -74,0 -108,0 -174,-30 -23,-11 -42,-24 -61,-41l-20 -22c0,-1 -1,-1 -1,-1 0,-1 -1,-1 -1,-2l-4 -5c-14,-20 -31,-56 -35,-80 -1,-10 -4,-14 -4,-24l0 -47c0,-11 3,-16 5,-27 7,-45 42,-94 77,-122 62,-50 168,-66 246,-54 48,7 70,12 114,35 20,11 20,13 35,25 14,10 35,34 43,48 4,7 7,12 10,19 14,26 21,58 22,90z"/>
  <path class="fil1" d="M3982 263c-11,-3 -75,-5 -98,-10l0 -198c1,-29 13,-22 -95,-22 -5,0 -6,1 -6,6l0 315c0,9 8,5 32,9 9,2 28,2 39,4 26,3 52,3 78,7 31,4 88,6 116,10 15,2 24,4 38,1 0,-54 0,-107 0,-161 0,-22 5,-47 14,-65 1,-2 2,-4 4,-7 7,-12 -7,9 1,-2l14 -13c19,-11 46,-12 66,0 22,13 28,39 32,60 6,25 4,36 0,61 -2,9 -1,12 -3,21 -4,13 -6,24 -11,36l-6 16c-3,7 -5,10 -8,17 -7,14 -15,22 -16,31 9,2 85,45 94,47 15,-10 38,-67 43,-87 9,-33 15,-66 16,-99l0 -32c-1,-26 -5,-51 -11,-77 -7,-27 -19,-44 -32,-65 -41,-61 -137,-82 -199,-54 -50,22 -76,61 -90,112 -2,5 -2,5 -3,11 -3,10 -4,13 -5,24 -1,17 -4,30 -4,49 0,18 0,37 0,55z"/>
  <path class="fil1" d="M4214 1629c0,13 -12,-3 -17,-9l-2 -2c-16,-20 -47,-49 -64,-68l-2 -3c-1,0 -2,-1 -2,-2l-15 -16c-36,-35 -56,-60 -102,-83 -7,-4 -12,-7 -21,-9 -59,-16 -110,-10 -156,29 0,0 0,0 -1,1l-7 7c-27,32 -51,87 -51,128l0 53c0,32 16,80 32,109 10,19 27,45 44,60 32,26 21,19 61,-40l22 -35 -38 -44c-29,-55 -21,-171 73,-145l30 13c4,2 9,6 13,9l204 213c4,5 17,21 24,21l77 0 0 -403 -102 0 0 216z"/>
  <path class="fil1" d="M3933 468c-11,0 -25,3 -36,5 -22,4 -42,16 -59,30 -31,25 -49,64 -58,103 -7,27 -6,63 -6,90 0,45 29,118 61,152 9,9 27,29 39,32 7,-5 23,-34 30,-44 32,-48 32,-45 19,-56 -14,-11 -19,-18 -27,-34 -4,-8 -3,-5 -7,-14 -1,-5 -3,-10 -4,-15 -20,-70 17,-159 113,-103 14,8 31,23 41,35l46 49c0,0 0,0 1,1l62 66c5,5 -3,-4 2,2l20 21c7,6 10,11 16,18 6,6 11,11 17,17 4,3 6,5 9,8l5 7c1,0 1,1 1,1 4,5 14,18 21,18l77 0 0 -405 -96 0c-10,0 -6,19 -6,39l0 179c-2,13 -6,0 -20,-13 -8,-8 -14,-14 -21,-23l-28 -29c-26,-29 -55,-60 -84,-85l-25 -18c-6,-4 -7,-6 -13,-9 -27,-14 -58,-25 -90,-25z"/>
  <path class="fil1" d="M536 253c0,12 31,8 51,8 18,0 12,-22 12,-61 0,-17 -3,-62 2,-73 7,2 11,14 14,20l41 67c14,28 38,29 50,9l45 -75c1,-1 2,-3 2,-4 4,-6 10,-20 15,-24 0,10 2,14 2,37l0 77c0,31 -6,27 51,27 5,0 6,-1 10,-2 4,-16 4,-74 2,-93 -4,-24 -2,-130 -2,-166l-57 0c-1,11 1,2 -5,12l-27 46c-3,5 -2,4 -5,9l-13 20c0,0 0,1 0,1l-41 65c-1,-11 0,-2 -5,-10l-50 -84c-2,-3 -1,0 -3,-4l-25 -41c-6,-10 -5,-2 -5,-14l-59 0 0 253z"/>
  <path class="fil1" d="M1934 255c0,4 2,6 6,6 71,0 57,13 57,-69 0,-27 0,-53 0,-80 3,2 2,2 5,4 0,0 0,1 1,1l2 2c0,1 0,1 1,1 3,4 5,7 8,10l7 8c0,0 0,1 1,1l35 42c2,3 2,4 4,6l24 29c0,1 1,1 1,1l2 3c2,3 1,2 4,6l8 9c1,1 1,1 1,1 1,1 1,1 1,2l6 6c19,23 9,17 56,17 6,0 6,-1 11,-2l0 -259 -64 0 0 141c0,12 -3,4 -7,-1 0,0 -1,-1 -1,-1l-68 -83c0,0 0,-1 -1,-1l-28 -35c-4,-5 -3,-4 -7,-9 -5,-4 -6,-5 -8,-11l-57 0 0 255z"/>
  <path class="fil1" d="M1352 253c0,12 34,8 55,8 17,0 12,-15 12,-49 0,-19 -4,-55 6,-55 115,0 105,-7 104,20l0 82c12,1 67,9 67,-6l0 -253 -67 0 0 84c0,7 -1,8 -2,14l-106 0c-4,-19 -2,-74 -2,-98l-67 0 0 253z"/>
  <path class="fil0" d="M2333 253c0,14 57,7 67,6 5,-18 1,-39 2,-59 1,-9 -1,-6 10,-17 0,-1 1,-1 1,-1l13 -14c2,-1 0,-8 11,1 1,0 1,1 1,1l30 36c9,10 41,55 49,55 23,0 55,3 69,-4 -2,-7 -9,-13 -13,-18l-52 -66c0,-1 0,-1 -1,-1l-4 -6c-2,-2 -3,-2 -4,-4 -7,-8 -6,-10 -13,-18l-7 -8c0,0 0,0 -1,-1 -21,-22 -15,-20 4,-40 3,-3 4,-5 7,-8l59 -63c6,-7 17,-15 19,-24l-76 0c-2,7 -5,9 -10,14 -6,5 -8,8 -13,14l-38 40c0,0 0,0 0,1 -5,5 -8,8 -14,13l-17 19c-6,6 -4,5 -9,7l0 -108 -70 0 0 253z"/>
  <path class="fil0" d="M2606 253c0,7 9,8 16,8l177 0c21,0 17,-6 17,-37 0,-7 -2,-11 -4,-16 -18,-4 -80,-2 -106,-2 -36,0 -31,9 -31,-45 0,-10 36,-6 55,-6 20,0 45,2 61,-2 4,-15 2,-26 2,-45 0,-9 -16,-6 -26,-6l-65 0c-32,0 -27,9 -27,-49l124 0c15,0 11,-36 11,-53l-204 0 0 253z"/>
  <path class="fil1" d="M288 253c0,6 6,8 12,8l183 0c16,0 12,-10 12,-41 0,-20 -29,-14 -63,-14 -25,0 -56,3 -77,-2l0 -47c38,-9 120,10 120,-12 0,-52 10,-43 -57,-43 -21,0 -46,2 -63,-2 0,-58 -8,-47 43,-47 27,0 65,4 89,-2 6,-13 4,-32 4,-51l-203 0 0 253z"/>
  <path class="fil0" d="M3473 74c13,1 9,5 13,16 2,4 2,3 5,9 2,7 1,5 4,12l17 42 -69 0 23 -58c4,-9 7,-8 7,-21zm-142 183c13,7 38,4 61,4 6,0 7,-6 9,-11 9,-16 14,-42 23,-42l106 0c6,0 4,1 6,4 13,13 12,49 31,49 30,0 44,4 59,-6 -2,-3 -3,-3 -4,-6 -2,-4 -2,-6 -3,-9l-29 -64c-3,-7 -4,-7 -7,-15 0,0 0,-1 0,-1l-3 -6c-3,-4 0,1 -2,-4l-21 -48c-1,0 -1,-1 -1,-1l-44 -101 -69 0 -11 30c0,1 -1,1 -1,2l-100 225z"/>
  <path class="fil1" d="M1761 70c15,16 5,6 16,29 2,3 1,3 2,6 3,7 -1,-4 1,3l8 19c2,6 0,1 2,5 7,12 0,7 10,21l-69 0c0,-15 3,-10 7,-22l3 -10c3,-6 2,-4 5,-10l8 -20c3,-9 6,-10 7,-21zm-144 187c13,7 34,4 57,4 13,0 12,-8 15,-15l6 -14c9,-21 4,-24 23,-24l104 0 12 29c16,27 -11,24 68,24 8,0 8,-7 7,-13 -3,-8 -5,-8 -8,-17l-7 -13c0,-1 0,-2 0,-2l-22 -49c-2,-6 -1,-3 -4,-9l-20 -45c-1,-4 0,-1 -2,-4 -3,-6 -1,0 -4,-8 -2,-5 -2,-5 -3,-9l-38 -83c-3,-6 -2,1 -3,-9l-69 0c-1,15 -4,14 -7,20l-30 67c-2,4 -2,5 -3,9 -3,6 -1,2 -4,7l-23 52c-1,1 -1,3 -2,5 -3,8 0,2 -3,7l-40 90z"/>
  <path class="fil0" d="M3078 173c0,11 4,13 6,19 6,20 13,34 30,47 26,22 70,33 103,27l27 -6c7,-2 5,-3 12,-6 27,-12 43,-33 53,-56 2,-5 0,0 1,-6 2,-8 2,-9 4,-15 7,-19 5,-151 5,-177l-68 0c0,34 2,147 -4,175 -1,5 0,3 -2,6 -10,18 -18,22 -38,25 -13,2 -30,1 -41,-6 -19,-12 -25,-44 -25,-65l0 -135 -63 0 0 173z"/>
  <path class="fil1" d="M129 135c-51,0 -41,13 -41,-76 0,-4 2,-6 6,-6 38,0 73,-7 88,23 3,6 5,28 -4,41 -5,7 -10,12 -18,14l-31 4zm-106 124c16,4 36,2 53,2 27,0 2,-56 14,-67 15,-7 43,0 60,-4 22,-4 23,-1 40,-8 14,-7 15,-3 33,-20l13 -14c14,-20 21,-51 13,-77 -3,-9 -1,-10 -5,-17 -11,-21 -17,-29 -38,-41l-30 -13 -153 0 0 259z"/>
  <path class="fil1" d="M2553 1641c0,9 6,16 8,23 2,9 -1,5 3,13 3,6 3,2 5,12 3,17 3,8 6,18 1,2 1,4 1,6l13 37c2,5 1,7 3,13l21 61c3,13 8,8 50,8 2,0 4,2 10,-9l35 -107c8,5 6,0 8,10l9 30c2,9 3,5 5,15l19 59c15,4 28,2 46,2 15,0 12,-8 14,-18 4,-13 1,0 5,-12 2,-6 1,-7 3,-13 3,-7 3,-2 6,-11l1 -9c0,0 0,-1 1,-1l28 -89c3,-8 3,-4 6,-11 1,-5 1,-9 3,-14 0,0 12,-19 -4,-19 -31,0 -36,-4 -43,10l-32 99c-3,10 -1,8 -10,13 -1,-12 -9,-36 -14,-47l-12 -41c-2,-3 -2,-1 -4,-7 -9,-30 2,-27 -49,-27 -9,0 -15,27 -21,41l-20 61c-2,5 -4,8 -4,18 -7,-2 -8,-4 -10,-11 -1,-4 0,-4 -1,-8 -2,-7 -2,-4 -4,-9 -3,-6 -3,-11 -5,-17l-19 -57c-1,-2 -1,-7 -2,-10 -5,-12 -25,-8 -47,-8 -4,0 -8,3 -8,6z"/>
  <path class="fil1" d="M1454 1643l0 181c0,12 19,8 41,8 12,0 8,-26 8,-47 0,-18 0,-36 0,-55l40 64c2,3 2,3 3,5l2 4c6,10 6,9 22,9 14,0 25,-29 39,-50 5,-7 16,-31 22,-34l0 82c0,27 -7,22 41,22 5,0 8,-3 8,-8 0,-32 3,-166 -2,-187 -15,-4 -17,-2 -35,-2 -14,0 -23,27 -30,38l-4 7c0,0 -1,1 -1,1l-20 35c-2,2 -3,3 -4,6 -6,8 -12,17 -12,25 -10,0 -7,2 -18,-19l-14 -22c-2,-4 -2,-5 -4,-8l-28 -46c-13,-21 -8,-17 -46,-17 -5,0 -8,3 -8,8z"/>
  <path class="fil1" d="M764 1792c-16,0 -20,1 -30,-3 0,0 -3,-2 -4,-2 -2,-1 -2,-1 -4,-2 -14,-7 -18,-15 -25,-28 -2,-6 -1,-2 -3,-10 -8,-37 18,-77 65,-70 11,1 10,0 20,6l8 4c7,6 11,12 14,20l4 9c9,24 -2,50 -18,64l-11 6c-5,2 -9,6 -16,6zm-120 -59c0,10 4,20 6,30 1,12 1,8 8,21l22 27c12,10 18,11 29,17 22,11 16,-4 38,17l26 21c3,2 0,1 4,2 2,1 3,1 6,3 5,2 2,1 6,3 11,4 41,4 52,1l12 -6c12,-6 14,-12 19,-20 -26,-38 -30,-13 -45,-13 -17,0 -25,3 -26,-10 18,-4 41,-25 49,-42l8 -15c6,-15 6,-55 -4,-78 -4,-9 -2,-6 -8,-14 -7,-10 -8,-13 -18,-21l-26 -16c-18,-9 -51,-15 -72,-8l-32 12c-1,0 -2,1 -3,2 0,0 -1,0 -1,0 0,1 -1,1 -1,1l-4 3c-14,9 -23,19 -31,34 -10,18 -6,8 -9,25 -1,8 -5,17 -5,24z"/>
  <path class="fil1" d="M192 1641l0 185c0,10 15,6 41,6 13,0 8,-33 8,-47 0,-18 0,-36 0,-55l15 26c1,2 2,4 3,5l30 47c5,5 0,4 17,4 5,0 10,-2 12,-4l6 -12c1,-1 2,-2 2,-2l20 -34c0,0 1,-1 1,-1 0,0 0,-1 1,-1l9 -17c6,-8 2,-4 10,-8l0 79c0,24 -1,20 39,20 5,0 5,-1 10,-2l0 -181c0,-18 -8,-14 -39,-14 -7,0 -13,13 -16,18 -3,6 -1,3 -4,8 -4,5 -6,9 -9,14l-33 56c-2,3 0,0 -3,4 -5,8 -2,11 -12,12l-18 -33c-2,-3 -1,0 -3,-4l-37 -60c0,-1 0,-1 -1,-2 -10,-16 -5,-13 -43,-13 -5,0 -6,1 -6,6z"/>
  <path class="fil1" d="M2142 1649l0 173c0,17 44,10 53,8 0,-25 0,-50 0,-75 0,-36 -2,-36 23,-5l17 20c6,8 11,14 17,21l26 32c10,12 3,9 43,9 5,0 8,-3 8,-8l0 -177c0,-17 -10,-12 -42,-12 -5,0 -6,3 -11,6l0 98 -6 0c-1,-6 -20,-28 -25,-34l-49 -59c-11,-15 -11,-11 -44,-11 -6,0 -10,7 -10,14z"/>
  <path class="fil0" d="M2826 33c0,28 2,20 81,20 0,34 -3,185 2,206 17,4 36,2 53,2 8,0 10,-3 15,-6l-1 -194c1,-8 2,-8 10,-8 23,-1 50,3 70,-2 4,-16 2,-32 2,-51l-232 0 0 33z"/>
  <path class="fil1" d="M1010 259c21,5 148,2 179,2 21,0 17,-6 17,-43 0,-5 -1,-5 -2,-10 -21,-5 -102,-2 -129,-2l0 -206 -65 0 0 259z"/>
  <path class="fil1" d="M3365 1641l0 185c0,10 16,6 43,6 10,0 6,-19 6,-38 0,-8 0,-15 0,-23 0,-22 -6,-16 76,-16 22,0 -5,77 14,77 26,0 43,4 43,-6l0 -185c0,-10 -15,-6 -41,-6 -13,0 -8,24 -8,36 0,20 3,39 -6,39l-78 0 0 -67c0,-12 -20,-8 -43,-8 -4,0 -6,1 -6,6z"/>
  <path class="fil1" d="M1717 1647c0,33 -2,95 3,125l4 14c0,1 1,1 1,1 6,12 2,11 14,23 0,0 0,1 1,1 0,1 1,2 2,2 3,3 3,3 6,6 8,6 8,5 17,10l43 9c14,0 44,-7 58,-19 3,-3 4,-3 7,-6l11 -13c9,-12 16,-40 16,-51l0 -106c0,-12 -25,-8 -41,-8 -17,0 -12,13 -12,36 0,25 4,88 -7,106 -11,17 -26,15 -44,15 -4,0 -16,-9 -20,-15 -1,-2 -3,-7 -4,-8 -6,-14 -5,-26 -5,-45l1 -71c0,-22 5,-18 -43,-18 -7,0 -8,6 -8,12z"/>
  <path class="fil1" d="M538 1737c-42,0 -33,11 -33,-59 37,0 51,-6 64,9 9,9 10,25 5,34 -7,13 -22,16 -36,16zm-83 -90l0 173c0,17 10,12 44,12 11,0 6,-21 6,-51l51 -2c10,0 29,-5 37,-10l15 -11c1,-1 3,-3 3,-3 2,-3 3,-4 6,-7 11,-14 13,-33 13,-50 0,-7 -3,-8 -5,-14 -3,-11 -3,-13 -13,-24 0,0 -1,-2 -1,-2 -20,-21 -43,-23 -71,-23l-77 0c-7,0 -8,6 -8,12z"/>
  <path class="fil1" d="M2022 1694c0,13 4,12 7,21l11 28c2,6 1,-3 2,8 -15,3 -21,2 -38,2 -9,0 -9,-7 -7,-13l14 -33c3,-8 1,-11 11,-13zm-106 138c36,0 43,5 50,-17 3,-7 0,-3 4,-10 3,-6 3,-4 5,-11 24,0 49,-1 73,-1 18,1 14,3 23,23 9,19 -6,16 51,16 15,0 1,-17 0,-21l-23 -52c-2,-5 0,-2 -2,-6l-44 -98c-3,-5 -1,1 -3,-5 -2,-4 -1,-4 -3,-8 -5,-11 -27,-7 -48,-7 -9,0 -16,25 -23,39l-26 58c-2,3 -1,3 -2,6 0,0 0,1 -1,1 0,1 0,1 0,2 -2,4 0,-1 -3,4l-22 50c-4,8 -20,37 -6,37z"/>
  <path class="fil1" d="M1031 1747l20 -47c1,-2 1,-6 2,-8 8,6 15,33 21,44 3,5 3,0 3,11 0,10 -14,6 -40,6 -5,0 -6,-2 -6,-6zm-86 83c16,4 26,2 45,2 9,0 10,-11 11,-15 0,0 1,-1 1,-1 12,-29 -1,-22 92,-22 10,0 10,26 21,35 4,4 -3,3 5,3 50,0 51,8 33,-35l-20 -43c0,-1 0,-2 -1,-3l-39 -89c-17,-33 -5,-27 -54,-27 -10,0 -13,7 -20,23l-2 6c0,1 0,1 0,2l-57 124c-3,8 -2,7 -5,13 -4,9 -10,19 -10,27z"/>
  <path class="fil1" d="M2431 1749c0,-8 6,-20 10,-31 5,-12 8,-22 16,-24 0,15 1,5 9,28 2,5 9,13 10,29 -8,2 -45,6 -45,-2zm-79 83c39,0 41,6 50,-17l9 -21c22,0 79,-5 87,4 5,5 3,5 5,13l6 12c5,13 10,9 48,9 13,0 3,-16 -1,-25 -3,-5 -1,-1 -4,-6l-10 -25c-3,-6 -3,-4 -5,-11l-50 -111c-11,-21 5,-19 -52,-19 -9,0 -12,14 -15,21l-75 166c-1,5 -1,10 7,10z"/>
  <path class="fil1" d="M3215 1747c0,-8 3,-7 7,-21l8 -20c3,-8 5,-5 7,-14 5,3 13,26 16,33l9 22c0,10 -15,6 -41,6 -5,0 -6,-2 -6,-6zm-86 79c0,10 16,6 43,6 9,0 14,-17 19,-29 2,-6 1,-9 7,-9 12,0 76,-3 82,1 8,5 8,37 26,37 42,0 41,4 41,-10 0,-9 0,3 -6,-11l-31 -72c-2,-6 -3,-6 -6,-12l-36 -80c-8,-16 -1,-12 -49,-12 -7,0 -7,4 -10,10l-71 157c-5,14 -9,19 -9,24z"/>
  <path class="fil1" d="M3 1690c0,13 2,25 11,36l34 22c9,4 8,1 17,4 7,2 6,3 15,5 14,3 10,0 24,7 5,3 12,6 9,16 -5,19 -54,14 -69,7l-21 -10c-12,0 -10,4 -18,19 -3,8 -10,13 1,21 2,1 1,0 4,2 3,2 2,2 5,3 9,5 22,10 32,10 12,1 17,6 37,6l41 -8c3,-1 0,0 5,-3 3,-1 3,-2 5,-3 7,-3 5,-2 10,-6 10,-8 11,-10 14,-18 8,-18 6,4 6,-37 0,-6 -2,-8 -6,-16l-12 -14c-27,-18 -34,-13 -46,-18 -20,-8 -45,-6 -45,-23 0,-27 46,-18 62,-14 8,1 11,5 21,8 8,-6 10,-10 13,-18 6,-20 14,-14 -10,-28 -8,-4 -6,-2 -15,-4 -12,-2 -41,-15 -70,-2 -11,4 -19,2 -37,18 -4,4 0,0 -4,4 -7,9 -13,26 -13,34z"/>
  <path class="fil1" d="M886 249c0,5 1,5 2,10 12,1 67,9 67,-6l0 -253 -69 0 0 249z"/>
  <path class="fil1" d="M1232 253c0,13 29,8 57,8 5,0 8,-4 8,-8l0 -253 -65 0 0 253z"/>
  <path class="fil1" d="M3034 1832c53,0 42,7 42,-59 0,-11 1,-11 8,-23l14 -23c0,0 1,-2 1,-2l36 -60c23,-36 16,-30 -28,-30 -7,0 -12,10 -16,17l-26 43c0,0 0,1 0,1l-7 12c-1,0 -1,0 -1,1 -4,5 1,0 -5,5l-38 -63c-2,-4 -5,-8 -7,-10 -8,-10 -24,-6 -47,-6 -16,0 4,26 13,42 2,2 2,3 3,5 2,2 2,2 4,5l3 6c1,0 1,1 1,1l12 19c0,1 0,1 1,2l27 45c8,18 -8,72 10,72z"/>
  <path class="fil2" d="M1181 1645l0 181c0,5 2,6 6,6l131 0c15,0 12,-8 12,-32 0,-18 -62,-2 -98,-10 0,-13 2,-146 -2,-151 -4,-7 -37,-4 -47,-4 -1,4 -2,4 -2,10z"/>
  <path class="fil1" d="M2887 1641l0 185c0,10 16,6 43,6 5,0 8,-3 8,-8 0,-32 3,-166 -2,-187 -15,-4 -25,-2 -43,-2 -5,0 -6,1 -6,6z"/>
  <path class="fil2" d="M1338 1741c0,40 -8,32 77,32 12,0 13,-40 0,-40l-65 0c-6,0 -12,1 -12,8z"/>
 </g>
</svg>
